<svg width="14" height="20" viewBox="0 0 14 20" fill="none" xmlns="http://www.w3.org/2000/svg">
<path d="M7 0.5C4.89205 0.5 3.18182 2.0957 3.18182 4.0625V10C3.18182 11.9668 4.89205 13.5625 7 13.5625C9.10795 13.5625 10.8182 11.9668 10.8182 10V4.0625C10.8182 2.0957 9.10795 0.5 7 0.5ZM1.90909 8.51562C1.90909 8.02207 1.48352 7.625 0.954545 7.625C0.425568 7.625 0 8.02207 0 8.51562V10C0 13.3064 2.63295 16.0377 6.04545 16.4719V17.7188H4.13636C3.60739 17.7188 3.18182 18.1158 3.18182 18.6094C3.18182 19.1029 3.60739 19.5 4.13636 19.5H7H9.86364C10.3926 19.5 10.8182 19.1029 10.8182 18.6094C10.8182 18.1158 10.3926 17.7188 9.86364 17.7188H7.95455V16.4719C11.367 16.0377 14 13.3064 14 10V8.51562C14 8.02207 13.5744 7.625 13.0455 7.625C12.5165 7.625 12.0909 8.02207 12.0909 8.51562V10C12.0909 12.6236 9.81193 14.75 7 14.75C4.18807 14.75 1.90909 12.6236 1.90909 10V8.51562Z" fill="white"/>
</svg>
