<svg width="16" height="17" viewBox="0 0 16 17" fill="none" xmlns="http://www.w3.org/2000/svg">
<path d="M8.00043 8.49999C8.78394 8.49999 9.55308 8.66832 10.2275 8.98739C10.5321 9.13152 10.8128 9.3042 11.0633 9.50067C11.3674 9.73912 11.6275 10.0128 11.8345 10.3139C12.2119 10.8632 12.398 11.4833 12.3734 12.1098C12.3488 12.7363 12.1142 13.346 11.6944 13.8753C11.2746 14.4045 10.6848 14.8336 9.98669 15.1182C9.28858 15.4027 8.50768 15.5325 7.72571 15.4931C6.94374 15.4538 6.18966 15.2468 5.54163 14.8945C4.8936 14.5422 4.3756 14.0573 4.04199 13.4902M8.00043 8.49999H1M8.00043 8.49999H15M11.9587 3.51001C11.6251 2.94286 11.1073 2.45778 10.4592 2.10547C9.8112 1.75315 9.05669 1.54626 8.27472 1.5069C7.49275 1.46754 6.71185 1.59705 6.01373 1.88161C5.31562 2.16617 4.72586 2.59553 4.30603 3.12476C3.8862 3.65399 3.65175 4.26396 3.62714 4.89046C3.61993 5.07401 3.63085 5.25672 3.65933 5.43758" stroke="white" stroke-width="2" stroke-linecap="round" stroke-linejoin="round"/>
</svg>
