<svg width="17" height="18" viewBox="0 0 17 18" fill="none" xmlns="http://www.w3.org/2000/svg">
<path d="M13.0037 2.13574C13.4781 1.64746 13.4781 0.854492 13.0037 0.366211C12.5294 -0.12207 11.7591 -0.12207 11.2847 0.366211L6.0747 5.7334L3.89658 3.49121C3.42225 3.00293 2.65193 3.00293 2.1776 3.49121C1.70327 3.97949 1.70327 4.77246 2.1776 5.26074L5.21332 8.38574C5.68765 8.87402 6.45796 8.87402 6.93229 8.38574L13.0037 2.13574ZM16.6466 7.13574C17.1209 6.64746 17.1209 5.85449 16.6466 5.36621C16.1722 4.87793 15.4019 4.87793 14.9276 5.36621L6.0747 14.4834L2.07515 10.3701C1.60082 9.88183 0.830505 9.88183 0.356175 10.3701C-0.118155 10.8584 -0.118155 11.6514 0.356175 12.1396L5.21332 17.1396C5.68765 17.6279 6.45796 17.6279 6.93229 17.1396L16.6466 7.13965V7.13574Z" fill="white"/>
</svg>
